With: Gabourey 'Gabby' Sidibe, Paula Patton and Mo'Nique

De film vertelt het verhaal van Claireece "Precious" Jones (Gabourey Sidibe), een zestienjarig Afro-Amerikaans meisje geboren in Harlem, in een keiharde omgeving. Het leven lacht haar niet bepaald toe: ze is voor de tweede keer in verwachting van haar vader. Thuis loopt ze op eieren om te vermijden dat haar moeder (Mo'Nique), een intens boze vrouw, haar mishandelt. Haar leven verandert als ze de kans krijgt over te stappen naar een alternatieve school. Daar komt ze onder de hoede van Ms. Rain (Paula Patton). Een vrouw die haar begrijpt en haar laat voelen dat ze bijzonder is en talenten heeft. Hier begint Precious haar nieuwe toekomst weg van de duisternis, de pijn en liefdeloze omgeving en neemt ze haar jonge leven in eigen hand.

In New York City's Harlem circa 1987, an overweight, abused, illiterate teen who is pregnant with her second child is invited to enroll in an alternative school in hopes that her life can head in a new direction. 
 
http://www.imdb.com/title/tt0929632	

------------------------ Dutch Friends ------------------------
---------------------------------------------------------------
- Bezoek ook eens mijn vrienden op:  http://www.Film-Test.nl --
----- voor mijn Nederlandse Sync. ondertitels ---- en meer ----
------- http://www.Film-Test.nl ---- Over Films en meer -------
---------------------------------------------------------------

General:

Complete name                    : PreciousPrecious.avi
Format                           : AVI
Format/Info                      : Audio Video Interleave
File size                        : 1.83 GiB
Duration                         : 1h 49mn
Overall bit rate                 : 2 381 Kbps

Video:

Format                           : MPEG-4 Visual
Format profile                   : Simple@L3
Format settings, BVOP            : No
Format settings, QPel            : No
Format settings, GMC             : No warppoints
Format settings, Matrix          : Default (H.263)
Codec ID                         : XVID
Codec ID/Hint                    : XviD
Duration                         : 1h 49mn
Bit rate                         : 1 922 Kbps
Width                            : 652 pixels
Height                           : 352 pixels
Display aspect ratio             : 1.852
Frame rate                       : 25.000 fps
Color space                      : YUV
Chroma subsampling               : 4:2:0
Bit depth                        : 8 bits
Scan type                        : Progressive
Compression mode                 : Lossy
Bits/(Pixel*Frame)               : 0.335
Stream size                      : 1.47 GiB (81%)
Writing library                  : XviD 1.1.2 (UTC 2006-11-01)

Audio:

Format                           : AC-3
Format/Info                      : Audio Coding 3
Mode extension                   : CM (complete main)
Codec ID                         : 2000
Duration                         : 1h 49mn
Bit rate mode                    : Constant
Bit rate                         : 448 Kbps
Channel(s)                       : 6 channels
Channel positions                : Front: L C R, Side: L R, LFE
Sampling rate                    : 48.0 KHz
Bit depth                        : 16 bits
Compression mode                 : Lossy
Stream size                      : 352 MiB (19%)
Alignment                        : Aligned on interleaves
Interleave, duration             : 32 ms (0.80 video frame)
Interleave, preload duration     : 192 ms